Coordinates
version=1
nRows=41
nColumns=11
inDegrees=no

Units are S.I. units (second, meters, Newtons, ...)
If the header above contains a line with 'inDegrees', this indicates whether rotational values are in degrees (yes) or radians (no).

endheader
time	pelvis_tilt	pelvis_tx	pelvis_ty	hip_flexion_r	knee_angle_r	ankle_angle_r	hip_flexion_l	knee_angle_l	ankle_angle_l	lumbar_extension
0.01	0.0319014	-0.0109925	0.959333	0.016074	-0.216119	0.106366	0.0297675	-0.180105	0.046377	0
0.02	0.0303711	-0.0114649	0.959483	0.0184179	-0.216429	0.102793	0.032671	-0.181526	0.0457805	0
0.03	0.0296697	-0.0119072	0.959576	0.0186118	-0.214136	0.0995728	0.0347305	-0.183049	0.0456404	0
0.04	0.0290726	-0.0123115	0.959617	0.0175547	-0.20954	0.0961841	0.0372927	-0.185854	0.0459566	0
0.05	0.0286446	-0.0126662	0.959645	0.0164298	-0.20524	0.0932646	0.0392355	-0.187902	0.0460728	0
0.06	0.0269383	-0.0120711	0.959474	0.0185413	-0.201529	0.0909754	0.0412266	-0.183843	0.0432625	0
0.07	0.0245534	-0.0135706	0.959577	0.0204913	-0.201086	0.0875876	0.0414862	-0.180125	0.0394192	0
0.08	0.0228609	-0.0141285	0.959511	0.0230785	-0.201202	0.0862369	0.0434907	-0.179249	0.0391982	0
0.09	0.00890166	-0.017238	0.958715	0.0400539	-0.196648	0.0841789	0.060477	-0.17514	0.0389251	0
0.1	0.0202855	-0.0154465	0.959408	0.0291897	-0.205171	0.0834054	0.049258	-0.182854	0.03975	0
0.11	0.0204175	-0.0154755	0.9594	0.028876	-0.204679	0.0820002	0.0482143	-0.180477	0.0389223	0
0.12	0.019405	-0.015867	0.959403	0.0296851	-0.202955	0.0791993	0.0482365	-0.177349	0.0368471	0
0.13	0.00251864	-0.0190417	0.958476	0.0479005	-0.193838	0.0776651	0.0651011	-0.165416	0.0329886	0
0.14	0.0142577	-0.017018	0.95928	0.0355856	-0.20088	0.0766224	0.0506258	-0.168543	0.0319794	0
0.15	0.0266159	-0.0136378	0.96136	0.0115605	-0.188177	0.0690369	0.0267158	-0.156681	0.0271133	0
0.16	0.0279529	-0.0137386	0.961274	0.00927611	-0.186573	0.070287	0.0248312	-0.155847	0.0274735	0
0.17	0.00707173	-0.017758	0.959733	0.0360844	-0.181172	0.0711395	0.0512675	-0.14959	0.0263266	0
0.18	-0.00115151	-0.0229869	0.95867	0.0638601	-0.207251	0.0701226	0.0768429	-0.171466	0.0244782	0
0.19	-0.00854132	-0.0250522	0.958067	0.0765799	-0.211457	0.0656737	0.0872964	-0.171392	0.0219268	0
0.2	-0.0122343	-0.0260276	0.957747	0.0825578	-0.212804	0.0616672	0.0905951	-0.167776	0.0188668	0
0.21	-0.0142045	-0.0266371	0.957576	0.085941	-0.213946	0.0623783	0.0919331	-0.165134	0.0170793	0
0.22	-0.0280014	-0.0295486	0.956732	0.101766	-0.208466	0.0641513	0.105482	-0.155416	0.0161856	0
0.23	-0.0190914	-0.0282594	0.957209	0.0927729	-0.213188	0.0604428	0.0945991	-0.156777	0.0161438	0
0.24	-0.0201872	-0.0287969	0.957077	0.0934678	-0.211148	0.0594788	0.0947224	-0.153707	0.0150239	0
0.25	-0.0219551	-0.0296329	0.957008	0.0954431	-0.209924	0.0621558	0.0973419	-0.15315	0.0120854	0
0.26	-0.041474	-0.0337502	0.955825	0.119872	-0.204333	0.0593861	0.121734	-0.147461	0.0088024	0
0.27	-0.0458079	-0.0350583	0.95538	0.126604	-0.204999	0.0541553	0.128078	-0.148089	0.00881302	0
0.28	-0.0484466	-0.0361728	0.955122	0.130012	-0.203687	0.0534803	0.131891	-0.147646	0.00873079	0
0.29	-0.0509438	-0.0372582	0.955012	0.132722	-0.201953	0.0563311	0.136107	-0.148203	0.00777893	0
0.3	-0.0399236	-0.0360111	0.955749	0.120077	-0.206259	0.0554384	0.12413	-0.153479	0.00695562	0
0.31	-0.0561995	-0.0390583	0.954647	0.138951	-0.198742	0.0500776	0.143088	-0.146549	0.00466281	0
0.32	-0.0470876	-0.0385233	0.955156	0.130087	-0.204446	0.0480636	0.135354	-0.1542	0.00308323	0
0.33	-0.0634127	-0.0419556	0.954054	0.14846	-0.195234	0.0434825	0.156317	-0.150021	0.00137846	0
0.34	-0.0644704	-0.0429841	0.953901	0.149113	-0.193956	0.0415595	0.160298	-0.155665	0.0029469	0
0.35	-0.0555792	-0.0415554	0.95441	0.138869	-0.1962	0.0417049	0.152536	-0.16285	0.00381152	0
0.36	-0.068628	-0.0440817	0.953538	0.153888	-0.189696	0.0403908	0.169047	-0.158993	0.00245134	0
0.37	-0.0583459	-0.0431714	0.954161	0.142936	-0.194769	0.0391949	0.159231	-0.166944	0.00322198	0
0.38	-0.0598268	-0.0438486	0.954031	0.143317	-0.191766	0.0389926	0.160766	-0.167791	0.0041588	0
0.39	-0.0616589	-0.0445594	0.95391	0.145567	-0.192635	0.0420552	0.163839	-0.170941	0.00446371	0
0.4	-0.0629047	-0.0452429	0.953841	0.148306	-0.196214	0.0440713	0.167253	-0.175564	0.00632771	0
0.41	-0.0637907	-0.0457144	0.953815	0.14952	-0.197977	0.0447838	0.168947	-0.177789	0.00895566	0
